Coordinates
version=1
nRows=18
nColumns=26
inDegrees=yes

Units are S.I. units (second, meters, Newtons, ...)
If the header above contains a line with 'inDegrees', this indicates whether rotational values are in degrees (yes) or radians (no).

endheader
time	pelvis_tilt	pelvis_list	pelvis_rotation	pelvis_tx	pelvis_ty	pelvis_tz	hip_flexion_r	hip_adduction_r	hip_rotation_r	knee_angle_r	knee_angle_r_beta	ankle_angle_r	subtalar_angle_r	mtp_angle_r	hip_flexion_l	hip_adduction_l	hip_rotation_l	knee_angle_l	knee_angle_l_beta	ankle_angle_l	subtalar_angle_l	mtp_angle_l	lumbar_extension	lumbar_bending	lumbar_rotation
      1.25500000	     -7.26728506	      0.96885071	     -4.78561597	     -0.21975183	      0.83975739	     -0.54217266	     27.67070240	    -10.32763652	    -13.26151014	     55.98029915	      0.97704054	     17.32351605	      0.00000000	      0.00000000	     30.91606737	     -7.87721354	      0.03660853	     58.12988562	      1.01455790	      8.66245394	      0.00000000	      0.00000000	     -6.97034295	      0.51830540	      6.33133258
      1.26000000	     -7.20859058	      1.03789783	     -4.78392536	     -0.22082727	      0.83601446	     -0.54227823	     28.22846694	    -10.60125829	    -13.34396693	     57.13531523	      0.99719937	     17.95176661	      0.00000000	      0.00000000	     31.56519376	     -7.97320916	     -0.12485127	     59.34445280	      1.03575609	      8.81154989	      0.00000000	      0.00000000	     -7.22666145	      0.42917606	      6.42233481
      1.26500000	     -7.14596331	      1.11712618	     -4.77943038	     -0.22182193	      0.83260226	     -0.54237539	     28.74606154	    -10.86657882	    -13.39309009	     58.21064069	      1.01596734	     18.51879863	      0.00000000	      0.00000000	     32.17137210	     -8.05045841	     -0.26600717	     60.47373989	      1.05546587	      8.89584449	      0.00000000	      0.00000000	     -7.48060468	      0.33023118	      6.50536029
      1.27000000	     -7.08462736	      1.19883251	     -4.76993315	     -0.22274289	      0.82947447	     -0.54246871	     29.22311241	    -11.11577609	    -13.41336896	     59.20011023	      1.03323684	     19.02855872	      0.00000000	      0.00000000	     32.73753707	     -8.11507798	     -0.38017854	     61.51715057	      1.07367682	      8.93568650	      0.00000000	      0.00000000	     -7.72381713	      0.23069216	      6.57978807
      1.27500000	     -7.02963433	      1.27519548	     -4.75682588	     -0.22359740	      0.82658848	     -0.54256265	     29.66135248	    -11.33872892	    -13.40609652	     60.10056079	      1.04895267	     19.47620796	      0.00000000	      0.00000000	     33.26541345	     -8.17386945	     -0.46350340	     62.47279235	      1.09035592	      8.96007950	      0.00000000	      0.00000000	     -7.94809635	      0.13976268	      6.64852516
      1.28000000	     -6.98525328	      1.34483993	     -4.74532909	     -0.22438477	      0.82391275	     -0.54265205	     30.06620581	    -11.53076013	    -13.36794986	     60.91387558	      1.06314769	     19.87877804	      0.00000000	      0.00000000	     33.75082840	     -8.23015282	     -0.52051636	     63.33206943	      1.10535313	      8.96428394	      0.00000000	      0.00000000	     -8.14430998	      0.05808481	      6.71518396
      1.28500000	     -6.95118270	      1.40897766	     -4.73522070	     -0.22510254	      0.82142840	     -0.54274119	     30.43643291	    -11.69807593	    -13.30456577	     61.64048747	      1.07582946	     20.22045417	      0.00000000	      0.00000000	     34.18732609	     -8.28031670	     -0.55275703	     64.08886519	      1.11856171	      8.97738099	      0.00000000	      0.00000000	     -8.30965517	     -0.01540339	      6.77880822
      1.29000000	     -6.92589844	      1.46751337	     -4.72857372	     -0.22574221	      0.81913020	     -0.54283093	     30.77090874	    -11.84146922	    -13.21942368	     62.28200119	      1.08702599	     20.50805372	      0.00000000	      0.00000000	     34.56553871	     -8.32474360	     -0.56613874	     64.73617192	      1.12985935	      9.01222876	      0.00000000	      0.00000000	     -8.44314220	     -0.08098200	      6.84202063
      1.29500000	     -6.90620896	      1.52074930	     -4.72453749	     -0.22628814	      0.81702890	     -0.54292331	     31.06508045	    -11.96446731	    -13.11998725	     62.84085112	      1.09677976	     20.74553937	      0.00000000	      0.00000000	     34.87459457	     -8.36067838	     -0.56385926	     65.26688246	      1.13912199	      9.07346154	      0.00000000	      0.00000000	     -8.54538919	     -0.13895105	      6.90363008
      1.30000000	     -6.88755755	      1.56969261	     -4.72008551	     -0.22672321	      0.81514375	     -0.54302043	     31.31369485	    -12.07407890	    -13.01929903	     63.32043080	      1.10515000	     20.94386164	      0.00000000	      0.00000000	     35.10468245	     -8.38467159	     -0.55070695	     65.67762027	      1.14629072	      9.16375146	      0.00000000	      0.00000000	     -8.61860033	     -0.19053528	      6.95771909
      1.30500000	     -6.86705759	      1.60964121	     -4.71253113	     -0.22703714	      0.81349938	     -0.54312769	     31.51189903	    -12.16757224	    -12.92781492	     63.71924154	      1.11211056	     21.08785408	      0.00000000	      0.00000000	     35.25194440	     -8.39936938	     -0.52995089	     65.97025623	      1.15139818	      9.29328974	      0.00000000	      0.00000000	     -8.66489560	     -0.22965772	      7.00615025
      1.31000000	     -6.84290438	      1.63556942	     -4.70003750	     -0.22722018	      0.81212971	     -0.54324732	     31.65626945	    -12.23979089	    -12.85253350	     64.03883613	      1.11768854	     21.20281779	      0.00000000	      0.00000000	     35.31488786	     -8.40807822	     -0.50502008	     66.14687476	      1.15448075	      9.45638057	      0.00000000	      0.00000000	     -8.68515473	     -0.25027753	      7.04587288
      1.31500000	     -6.81460030	      1.64063478	     -4.67947557	     -0.22726280	      0.81106954	     -0.54338268	     31.74162204	    -12.28469483	    -12.80293318	     64.27393474	      1.12179178	     21.27206573	      0.00000000	      0.00000000	     35.29807222	     -8.41643653	     -0.47972817	     66.21525335	      1.15567419	      9.64378810	      0.00000000	      0.00000000	     -8.68009085	     -0.24400430	      7.07459675
      1.32000000	     -6.78403290	      1.62232114	     -4.64962722	     -0.22716646	      0.81034813	     -0.54353484	     31.76988389	    -12.29911162	    -12.78261418	     64.42411023	      1.12441284	     21.29988052	      0.00000000	      0.00000000	     35.21044092	     -8.42748493	     -0.46008898	     66.18359905	      1.15512171	      9.85910997	      0.00000000	      0.00000000	     -8.64852838	     -0.20827051	      7.09449162
      1.32500000	     -6.75182136	      1.57760792	     -4.61017691	     -0.22693348	      0.80999789	     -0.54370534	     31.73896791	    -12.27952352	    -12.79399244	     64.48427134	      1.12546285	     21.28529252	      0.00000000	      0.00000000	     35.06073849	     -8.44555602	     -0.45187054	     66.06218290	      1.15300260	     10.09390032	      0.00000000	      0.00000000	     -8.59203224	     -0.13992720	      7.10732003
      1.33000000	     -6.71968769	      1.50751077	     -4.56173371	     -0.22656734	      0.81004674	     -0.54388795	     31.64913228	    -12.22480282	    -12.83548055	     64.44959076	      1.12485756	     21.22428197	      0.00000000	      0.00000000	     34.85846050	     -8.47223541	     -0.46079184	     65.85952174	      1.14946550	     10.32755349	      0.00000000	      0.00000000	     -8.51165228	     -0.04084367	      7.10888226
      1.33500000	     -6.69102314	      1.41940043	     -4.50431552	     -0.22608200	      0.81050901	     -0.54407564	     31.50646963	    -12.14039727	    -12.90159535	     64.31880936	      1.12257499	     21.10993603	      0.00000000	      0.00000000	     34.61520523	     -8.50237237	     -0.49185673	     65.58224837	      1.14462616	     10.55288460	      0.00000000	      0.00000000	     -8.40649670	      0.07974361	      7.10034797
      1.34000000	     -6.66835537	      1.32511478	     -4.43986013	     -0.22549226	      0.81139161	     -0.54425902	     31.31876622	    -12.03504922	    -12.98037854	     64.09381274	      1.11864806	     20.94352782	      0.00000000	      0.00000000	     34.33883807	     -8.52625085	     -0.54840219	     65.23412243	      1.13855022	     10.75526624	      0.00000000	      0.00000000	     -8.27514685	      0.20742582	      7.08455191
